<svg width="36" height="36" viewBox="0 0 36 36" fill="none" xmlns="http://www.w3.org/2000/svg">
<path d="M18 19.5C20.4853 19.5 22.5 17.4853 22.5 15C22.5 12.5147 20.4853 10.5 18 10.5C15.5147 10.5 13.5 12.5147 13.5 15C13.5 17.4853 15.5147 19.5 18 19.5Z" stroke="#F81515" stroke-width="2" stroke-linecap="round" stroke-linejoin="round"/>
<path d="M18 3C14.8174 3 11.7652 4.26428 9.51472 6.51472C7.26428 8.76516 6 11.8174 6 15C6 17.838 6.603 19.695 8.25 21.75L18 33L27.75 21.75C29.397 19.695 30 17.838 30 15C30 11.8174 28.7357 8.76516 26.4853 6.51472C24.2348 4.26428 21.1826 3 18 3V3Z" stroke="#F81515" stroke-width="2" stroke-linecap="round" stroke-linejoin="round"/>
</svg>
